<?xml version="1.0" encoding="UTF-8" standalone="no" ?>
<!DOCTYPE svg PUBLIC "-//W3C//DTD SVG 1.1//EN" "http://www.w3.org/Graphics/SVG/1.1/DTD/svg11.dtd">
<svg xmlns="http://www.w3.org/2000/svg" xmlns:xlink="http://www.w3.org/1999/xlink" version="1.1" width="350" height="350" viewBox="0 0 350 350" xml:space="preserve">
<desc>Created with Fabric.js 1.7.22</desc>
<defs>
</defs>
<g id="icon" style="stroke: none; stroke-width: 1; stroke-dasharray: none; stroke-linecap: butt; stroke-linejoin: miter; stroke-miterlimit: 10; fill: none; fill-rule: nonzero; opacity: 1;" transform="translate(-1.9444444444444287 -1.9444444444444287) scale(3.89 3.89)" >
	<path d="M 63.836 10.102 l -58.519 0 C 2.381 10.102 0 12.483 0 15.419 v 59.162 c 0 2.937 2.381 5.317 5.317 5.317 h 13.134 h 66.232 c 2.937 0 5.317 -2.381 5.317 -5.317 V 36.266 C 89.865 27.997 73.989 10.102 63.836 10.102 z" style="stroke: none; stroke-width: 1; stroke-dasharray: none; stroke-linecap: butt; stroke-linejoin: miter; stroke-miterlimit: 10; fill: rgb(226,226,226); fill-rule: nonzero; opacity: 1;" transform=" matrix(1 0 0 1 0 0) " stroke-linecap="round" />
	<path d="M 90 36.266 v -6.662 c 0 -2.826 -1.123 -5.536 -3.121 -7.534 l -8.847 -8.847 c -1.998 -1.998 -4.708 -3.121 -7.534 -3.121 h -6.662 c 3.419 0 6.19 2.772 6.19 6.19 v 7.866 c 0 3.268 2.649 5.917 5.917 5.917 h 7.866 l 0 0 C 87.228 30.075 90 32.847 90 36.266 L 90 36.266 z" style="stroke: none; stroke-width: 1; stroke-dasharray: none; stroke-linecap: butt; stroke-linejoin: miter; stroke-miterlimit: 10; fill: rgb(183,183,183); fill-rule: nonzero; opacity: 1;" transform=" matrix(1 0 0 1 0 0) " stroke-linecap="round" />
	<path d="M 17.736 48.059 h -6.853 v 8.987 v 10.737 c 0 0.633 0.751 0.967 1.221 0.542 l 5.142 -4.645 c 0.278 -0.251 0.702 -0.251 0.98 0 l 5.142 4.645 c 0.47 0.425 1.221 0.091 1.221 -0.542 V 57.046 v -8.987 H 17.736 z" style="stroke: none; stroke-width: 1; stroke-dasharray: none; stroke-linecap: butt; stroke-linejoin: miter; stroke-miterlimit: 10; fill: rgb(243,172,71); fill-rule: nonzero; opacity: 1;" transform=" matrix(1 0 0 1 0 0) " stroke-linecap="round" />
	<path d="M 6.497 39.964 L 6.497 39.964 c -2.011 -2.747 0.199 -6.576 3.584 -6.208 l 0 0 c 1.697 0.185 3.319 -0.752 4.007 -2.314 l 0 0 c 1.374 -3.116 5.794 -3.116 7.168 0 l 0 0 c 0.689 1.562 2.31 2.498 4.007 2.314 h 0 c 3.385 -0.368 5.595 3.46 3.584 6.208 l 0 0 c -1.008 1.378 -1.008 3.25 0 4.627 l 0 0 c 2.011 2.747 -0.199 6.576 -3.584 6.208 h 0 c -1.697 -0.185 -3.319 0.752 -4.007 2.314 l 0 0 c -1.374 3.116 -5.794 3.116 -7.168 0 l 0 0 c -0.689 -1.562 -2.31 -2.498 -4.007 -2.314 h 0 c -3.385 0.368 -5.595 -3.46 -3.584 -6.208 l 0 0 C 7.505 43.213 7.505 41.341 6.497 39.964 z" style="stroke: none; stroke-width: 1; stroke-dasharray: none; stroke-linecap: butt; stroke-linejoin: miter; stroke-miterlimit: 10; fill: rgb(220,103,84); fill-rule: nonzero; opacity: 1;" transform=" matrix(1 0 0 1 0 0) " stroke-linecap="round" />
	<circle cx="17.673000000000002" cy="42.013" r="6.283" style="stroke: none; stroke-width: 1; stroke-dasharray: none; stroke-linecap: butt; stroke-linejoin: miter; stroke-miterlimit: 10; fill: rgb(243,172,71); fill-rule: nonzero; opacity: 1;" transform="  matrix(1 0 0 1 0 0) "/>
	<rect x="38.97" y="33.42" rx="0" ry="0" width="17.1" height="3" style="stroke: none; stroke-width: 1; stroke-dasharray: none; stroke-linecap: butt; stroke-linejoin: miter; stroke-miterlimit: 10; fill: rgb(220,103,84); fill-rule: nonzero; opacity: 1;" transform=" matrix(1 0 0 1 0 0) "/>
	<rect x="38.97" y="43.42" rx="0" ry="0" width="42.06" height="3" style="stroke: none; stroke-width: 1; stroke-dasharray: none; stroke-linecap: butt; stroke-linejoin: miter; stroke-miterlimit: 10; fill: rgb(220,103,84); fill-rule: nonzero; opacity: 1;" transform=" matrix(1 0 0 1 0 0) "/>
	<rect x="38.97" y="53.42" rx="0" ry="0" width="42.06" height="3" style="stroke: none; stroke-width: 1; stroke-dasharray: none; stroke-linecap: butt; stroke-linejoin: miter; stroke-miterlimit: 10; fill: rgb(220,103,84); fill-rule: nonzero; opacity: 1;" transform=" matrix(1 0 0 1 0 0) "/>
	<rect x="67.55" y="63.42" rx="0" ry="0" width="13.48" height="3" style="stroke: none; stroke-width: 1; stroke-dasharray: none; stroke-linecap: butt; stroke-linejoin: miter; stroke-miterlimit: 10; fill: rgb(220,103,84); fill-rule: nonzero; opacity: 1;" transform=" matrix(1 0 0 1 0 0) "/>
</g>
</svg>